<?xml version="1.0" encoding="UTF-8"?>
<!DOCTYPE svg PUBLIC "-//W3C//DTD SVG 1.1//EN" "http://www.w3.org/Graphics/SVG/1.1/DTD/svg11.dtd">
<svg xmlns="http://www.w3.org/2000/svg" version="1.1" width="983px" height="287px" style="shape-rendering:geometricPrecision; text-rendering:geometricPrecision; image-rendering:optimizeQuality; fill-rule:evenodd; clip-rule:evenodd" xmlns:xlink="http://www.w3.org/1999/xlink">
<g><path style="opacity:0.994" fill="#cb0212" d="M 134.5,2.5 C 140.245,2.22189 145.912,3.38856 151.5,6C 158.701,10.6983 166.035,15.1983 173.5,19.5C 153.695,31.2389 133.695,42.7389 113.5,54C 108.507,53.4482 104.007,52.9482 100,52.5C 85.9406,57.6703 82.274,67.0036 89,80.5C 90.0195,81.6872 91.1861,82.6872 92.5,83.5C 93.4997,107.491 93.8331,131.491 93.5,155.5C 86.7047,152.852 80.2047,149.518 74,145.5C 76.9242,133.022 72.2576,124.688 60,120.5C 59.0651,97.7967 59.3985,75.13 61,52.5C 62.9545,46.5458 66.4545,41.7125 71.5,38C 92.2841,25.6126 113.284,13.7792 134.5,2.5 Z"/></g>
<g><path style="opacity:0.992" fill="#cb0212" d="M 183.5,29.5 C 189.098,30.066 194.431,31.566 199.5,34C 215.004,43.2528 230.67,52.2528 246.5,61C 253.881,64.7152 258.715,70.5486 261,78.5C 261.832,88.8494 261.666,99.1828 260.5,109.5C 240.839,98.0023 221.172,86.5023 201.5,75C 197.551,58.4179 187.885,53.5845 172.5,60.5C 168.998,64.0031 166.665,68.1698 165.5,73C 145.344,84.5775 125.344,96.4109 105.5,108.5C 104.503,101.197 104.169,93.8635 104.5,86.5C 116.046,83.9254 120.712,76.7587 118.5,65C 118.759,63.7387 119.426,62.7387 120.5,62C 138.148,52.6355 155.482,42.9688 172.5,33C 176.333,31.9662 179.999,30.7995 183.5,29.5 Z"/></g>
<g><path style="opacity:0.997" fill="#cb0212" d="M 22.5,164.5 C 19.2925,160.752 17.1258,156.418 16,151.5C 15.3333,127.833 15.3333,104.167 16,80.5C 17.5167,74.3178 20.6834,69.1511 25.5,65C 32.7012,60.3017 40.0346,55.8017 47.5,51.5C 48.086,51.7093 48.586,52.0426 49,52.5C 49.6667,76.1667 49.6667,99.8333 49,123.5C 41.6004,129.592 39.6004,137.259 43,146.5C 48.7687,154.318 56.2687,156.652 65.5,153.5C 86.4269,164.632 107.094,176.299 127.5,188.5C 121.763,193.121 115.596,197.121 109,200.5C 100.047,191.56 90.7141,191.227 81,199.5C 60.8364,188.814 41.3364,177.147 22.5,164.5 Z"/></g>
<g><path style="opacity:0.998" fill="#cb0212" d="M 257.5,123.5 C 258.653,125.807 259.82,128.14 261,130.5C 261.667,155.5 261.667,180.5 261,205.5C 259.198,210.929 256.031,215.429 251.5,219C 244.133,223.834 236.466,228.001 228.5,231.5C 228.333,208.164 228.5,184.831 229,161.5C 237.405,156.174 239.738,148.841 236,139.5C 234.207,136.705 232.04,134.205 229.5,132C 223.855,130.4 218.189,130.067 212.5,131C 191.955,118.896 171.288,107.063 150.5,95.5C 155.921,91.2589 161.755,87.5922 168,84.5C 170.823,86.318 173.656,88.1513 176.5,90C 180.833,90.6667 185.167,90.6667 189.5,90C 191.844,89.1628 193.844,87.8294 195.5,86C 196.833,85.3333 198.167,85.3333 199.5,86C 215.965,96.0973 232.965,106.097 250.5,116C 253.067,118.396 255.4,120.896 257.5,123.5 Z"/></g>
<g><path style="opacity:0.893" fill="#000000" d="M 425.5,99.5 C 438.877,99.1095 442.877,104.943 437.5,117C 431.211,120.744 425.378,120.244 420,115.5C 416.717,108.199 418.551,102.865 425.5,99.5 Z"/></g>
<g><path style="opacity:0.939" fill="#000000" d="M 371.5,102.5 C 381.716,101.929 391.716,103.096 401.5,106C 402.81,112.444 402.81,118.944 401.5,125.5C 388.691,118.32 375.691,117.82 362.5,124C 352.619,132.666 349.119,143.499 352,156.5C 357.589,172.877 368.755,178.543 385.5,173.5C 386.495,168.208 386.828,162.875 386.5,157.5C 380.833,157.5 375.167,157.5 369.5,157.5C 369.5,152.167 369.5,146.833 369.5,141.5C 381.833,141.5 394.167,141.5 406.5,141.5C 406.833,156.182 406.499,170.848 405.5,185.5C 386.563,194.585 367.563,194.752 348.5,186C 333.32,174.173 327.487,158.673 331,139.5C 335.898,117.651 349.398,105.318 371.5,102.5 Z"/></g>
<g><path style="opacity:0.943" fill="#000000" d="M 501.5,103.5 C 516.194,103.251 530.861,103.751 545.5,105C 567.449,109.635 578.449,123.302 578.5,146C 577.41,169.744 565.41,184.411 542.5,190C 528.837,190.5 515.171,190.667 501.5,190.5C 501.5,161.5 501.5,132.5 501.5,103.5 Z M 521.5,120.5 C 549.989,118.865 561.156,131.865 555,159.5C 551.181,167.318 545.014,172.152 536.5,174C 531.511,174.499 526.511,174.666 521.5,174.5C 521.5,156.5 521.5,138.5 521.5,120.5 Z"/></g>
<g><path style="opacity:0.939" fill="#000000" d="M 821.5,103.5 C 829.196,103.169 836.862,103.503 844.5,104.5C 855.03,132.757 865.363,161.09 875.5,189.5C 868.167,190.833 860.833,190.833 853.5,189.5C 851.392,183.676 849.392,177.843 847.5,172C 837.506,171.5 827.506,171.334 817.5,171.5C 816.001,177.831 814.001,183.997 811.5,190C 804.508,190.5 797.508,190.666 790.5,190.5C 800.633,161.436 810.966,132.436 821.5,103.5 Z M 832.5,125.5 C 835.798,135.058 839.132,144.725 842.5,154.5C 835.858,155.664 829.192,155.831 822.5,155C 825.735,145.129 829.068,135.295 832.5,125.5 Z"/></g>
<g><path style="opacity:0.93" fill="#000000" d="M 884.5,103.5 C 891.167,103.5 897.833,103.5 904.5,103.5C 904.5,132.5 904.5,161.5 904.5,190.5C 897.833,190.5 891.167,190.5 884.5,190.5C 884.5,161.5 884.5,132.5 884.5,103.5 Z"/></g>
<g><path style="opacity:0.995" fill="#ca0212" d="M 132.5,109.5 C 151.289,107.805 163.789,115.805 170,133.5C 173.211,151.244 166.711,164.077 150.5,172C 131.949,176.967 118.116,171.133 109,154.5C 103.348,132.211 111.181,117.211 132.5,109.5 Z"/></g>
<g><path style="opacity:0.939" fill="#000000" d="M 474.5,109.5 C 475.117,109.611 475.617,109.944 476,110.5C 476.499,116.491 476.666,122.491 476.5,128.5C 481.167,128.5 485.833,128.5 490.5,128.5C 490.5,133.5 490.5,138.5 490.5,143.5C 485.833,143.5 481.167,143.5 476.5,143.5C 476.074,153.912 476.574,164.246 478,174.5C 479.473,176.007 481.307,176.674 483.5,176.5C 485.858,176.247 488.192,175.914 490.5,175.5C 491.081,180.975 490.414,186.142 488.5,191C 479.326,193.707 470.659,192.707 462.5,188C 460.348,185.531 458.848,182.698 458,179.5C 457.5,167.505 457.333,155.505 457.5,143.5C 454.167,143.5 450.833,143.5 447.5,143.5C 447.5,138.5 447.5,133.5 447.5,128.5C 450.833,128.5 454.167,128.5 457.5,128.5C 457.5,123.833 457.5,119.167 457.5,114.5C 463.439,113.406 469.106,111.739 474.5,109.5 Z"/></g>
<g><path style="opacity:0.939" fill="#000000" d="M 675.5,109.5 C 676.117,109.611 676.617,109.944 677,110.5C 677.499,116.491 677.666,122.491 677.5,128.5C 682.167,128.5 686.833,128.5 691.5,128.5C 691.5,133.5 691.5,138.5 691.5,143.5C 686.833,143.5 682.167,143.5 677.5,143.5C 677.074,153.912 677.574,164.246 679,174.5C 680.473,176.007 682.307,176.674 684.5,176.5C 686.858,176.247 689.192,175.914 691.5,175.5C 692.081,180.975 691.414,186.142 689.5,191C 680.326,193.707 671.659,192.707 663.5,188C 661.348,185.531 659.848,182.698 659,179.5C 658.5,167.505 658.333,155.505 658.5,143.5C 655.167,143.5 651.833,143.5 648.5,143.5C 648.5,138.5 648.5,133.5 648.5,128.5C 651.833,128.5 655.167,128.5 658.5,128.5C 658.5,123.833 658.5,119.167 658.5,114.5C 664.439,113.406 670.106,111.739 675.5,109.5 Z"/></g>
<g><path style="opacity:0.004" fill="#fe0000" d="M 257.5,122.5 C 258.833,123.167 258.833,123.167 257.5,122.5 Z"/></g>
<g><path style="opacity:0.928" fill="#000000" d="M 611.5,126.5 C 621.028,126.062 629.194,129.062 636,135.5C 637.927,138.948 639.261,142.615 640,146.5C 640.5,161.163 640.667,175.83 640.5,190.5C 634.167,190.5 627.833,190.5 621.5,190.5C 621.662,188.473 621.495,186.473 621,184.5C 614.116,192.34 605.616,194.507 595.5,191C 587.502,187.673 583.835,181.673 584.5,173C 584.578,162.244 589.911,155.578 600.5,153C 607.446,151.65 614.446,150.817 621.5,150.5C 621.168,144.004 617.668,140.671 611,140.5C 603.941,141.352 597.441,143.686 591.5,147.5C 590.167,142.167 590.167,136.833 591.5,131.5C 598.106,129.052 604.773,127.385 611.5,126.5 Z M 614.5,162.5 C 616.833,162.5 619.167,162.5 621.5,162.5C 621.665,175.186 615.831,179.52 604,175.5C 601.721,171.73 602.221,168.396 605.5,165.5C 608.582,164.365 611.582,163.365 614.5,162.5 Z"/></g>
<g><path style="opacity:0.928" fill="#000000" d="M 723.5,126.5 C 733.028,126.062 741.194,129.062 748,135.5C 749.927,138.948 751.261,142.615 752,146.5C 752.5,161.163 752.667,175.83 752.5,190.5C 746.167,190.5 739.833,190.5 733.5,190.5C 733.662,188.473 733.495,186.473 733,184.5C 726.116,192.34 717.616,194.507 707.5,191C 699.502,187.673 695.835,181.673 696.5,173C 696.578,162.244 701.911,155.578 712.5,153C 719.446,151.65 726.446,150.817 733.5,150.5C 733.168,144.004 729.668,140.671 723,140.5C 715.941,141.352 709.441,143.686 703.5,147.5C 702.167,142.167 702.167,136.833 703.5,131.5C 710.106,129.052 716.773,127.385 723.5,126.5 Z M 726.5,162.5 C 728.833,162.5 731.167,162.5 733.5,162.5C 733.665,175.186 727.831,179.52 716,175.5C 713.721,171.73 714.221,168.396 717.5,165.5C 720.582,164.365 723.582,163.365 726.5,162.5 Z"/></g>
<g><path style="opacity:0.961" fill="#000000" d="M 419.5,128.5 C 425.833,128.5 432.167,128.5 438.5,128.5C 438.5,149.167 438.5,169.833 438.5,190.5C 432.167,190.5 425.833,190.5 419.5,190.5C 419.5,169.833 419.5,149.167 419.5,128.5 Z"/></g>
<g><path style="opacity:0.994" fill="#cb0212" d="M 184.5,128.5 C 185.873,128.343 187.207,128.51 188.5,129C 193.646,132.135 198.813,135.302 204,138.5C 202.143,147.245 204.31,154.745 210.5,161C 212.65,162.411 214.984,163.245 217.5,163.5C 217.667,185.503 217.5,207.503 217,229.5C 215.385,235.884 211.885,241.051 206.5,245C 188.907,255.324 171.24,265.657 153.5,276C 145.477,280.91 137.144,281.576 128.5,278C 121.088,274.212 113.921,270.045 107,265.5C 106.312,264.668 106.479,264.002 107.5,263.5C 126.934,252.279 146.267,240.779 165.5,229C 170.807,229.359 176.141,229.359 181.5,229C 191.318,224.015 194.484,216.182 191,205.5C 189.71,203.208 188.043,201.208 186,199.5C 184.744,175.851 184.244,152.184 184.5,128.5 Z"/></g>
<g><path style="opacity:0.004" fill="#fe0000" d="M 22.5,164.5 C 21.8333,165.167 21.8333,165.167 22.5,164.5 Z"/></g>
<g><path style="opacity:0.898" fill="#000000" d="M 773.5,171.5 C 783.443,172.373 787.276,177.707 785,187.5C 777.534,194.436 770.534,194.103 764,186.5C 762.169,178.189 765.335,173.189 773.5,171.5 Z"/></g>
<g><path style="opacity:0.948" fill="#cb0211" d="M 91.5,227.5 C 91.5299,228.497 91.0299,229.164 90,229.5C 86.8127,228.833 83.646,227.333 80.5,225C 79.8735,221.369 77.5402,218.702 73.5,217C 75.9913,216.374 75.9913,215.541 73.5,214.5C 72.7542,213.264 72.4208,211.93 72.5,210.5C 69.405,210.374 67.5717,208.707 67,205.5C 65.8831,205.665 64.7164,205.998 63.5,206.5C 62.2299,205.438 61.0633,204.438 60,203.5C 59.6667,203.833 59.3333,204.167 59,204.5C 58.5581,202.321 57.5581,201.655 56,202.5C 55.6258,201.584 55.1258,200.75 54.5,200C 50.3961,198.954 46.7294,197.288 43.5,195C 43.8333,194.667 44.1667,194.333 44.5,194C 42.028,192.54 39.3613,191.54 36.5,191C 37.6537,190.086 37.487,189.253 36,188.5C 34.4345,189.061 33.1011,188.394 32,186.5C 31,186.833 30,187.167 29,187.5C 28.6827,185.699 28.016,185.366 27,186.5C 25.9148,185.707 24.7481,185.04 23.5,184.5C 18.6172,184.786 17.6172,187.119 20.5,191.5C 17.8191,194.132 17.9858,196.466 21,198.5C 21.4244,196.385 22.5911,195.552 24.5,196C 23.1667,198 21.5,199.667 19.5,201C 20.6667,201.5 21.5,202.333 22,203.5C 22.957,201.291 24.1236,201.457 25.5,204C 21.81,204.424 21.6433,205.258 25,206.5C 27.1838,204.129 29.3505,204.296 31.5,207C 31.1667,207.333 30.8333,207.667 30.5,208C 31.8333,208.333 33.1667,208.667 34.5,209C 34.1667,209.333 33.8333,209.667 33.5,210C 36.941,210.092 39.6077,211.092 41.5,213C 39.2053,213.984 39.5386,214.817 42.5,215.5C 43.1667,215.167 43.8333,214.833 44.5,214.5C 44.8333,215.167 45.1667,215.833 45.5,216.5C 46.086,216.291 46.586,215.957 47,215.5C 47.2835,217.886 48.2835,218.552 50,217.5C 51.1354,220.707 53.1354,222.041 56,221.5C 56.8333,222.333 57.6667,223.167 58.5,224C 57.1669,225.84 57.3335,226.34 59,225.5C 60.7337,226.249 62.567,226.749 64.5,227C 64.0918,229.861 64.9251,230.028 67,227.5C 68.3848,228.551 69.3848,229.884 70,231.5C 71.8402,230.167 72.3402,230.334 71.5,232C 72.1258,232.75 72.6258,233.584 73,234.5C 74.7161,234.589 76.5494,234.256 78.5,233.5C 82.3863,234.588 82.3863,235.421 78.5,236C 81.1024,236.883 83.2691,238.383 85,240.5C 85.4186,239.328 86.0853,238.328 87,237.5C 87.9803,238.981 89.147,240.315 90.5,241.5C 94.4589,242.66 98.4589,242.827 102.5,242C 104.654,240.68 106.154,238.847 107,236.5C 108.487,237.253 108.654,238.086 107.5,239C 109.769,240.807 111.603,240.307 113,237.5C 113.805,239.901 114.638,239.734 115.5,237C 113.956,236.71 112.623,236.044 111.5,235C 112.749,233.176 113.915,233.343 115,235.5C 115.414,235.043 115.914,234.709 116.5,234.5C 118.407,236.76 120.407,236.927 122.5,235C 121.391,233.187 122.058,232.354 124.5,232.5C 124.5,231.5 124.5,230.5 124.5,229.5C 127.238,228.965 129.072,229.965 130,232.5C 130.374,231.584 130.874,230.75 131.5,230C 134.074,230.165 136.408,229.165 138.5,227C 138.167,226.667 137.833,226.333 137.5,226C 139.192,224.599 139.859,222.766 139.5,220.5C 140.5,220.5 141.5,220.5 142.5,220.5C 142.281,221.675 142.614,222.675 143.5,223.5C 144.592,222.169 145.926,221.336 147.5,221C 145.122,220.026 145.456,219.359 148.5,219C 147.833,218.667 147.167,218.333 146.5,218C 147.77,217.1 148.77,215.934 149.5,214.5C 150.5,215.833 151.5,215.833 152.5,214.5C 153.522,211.686 154.355,208.686 155,205.5C 156.015,202.937 157.515,201.604 159.5,201.5C 158.975,200.808 158.308,200.308 157.5,200C 159.481,199.395 159.815,198.395 158.5,197C 160.625,194.743 162.958,192.743 165.5,191C 165.043,190.586 164.709,190.086 164.5,189.5C 165.891,189.891 166.891,189.058 167.5,187C 166.167,186 166.167,185 167.5,184C 165.09,183.943 163.756,182.776 163.5,180.5C 167.019,178.24 170.686,176.24 174.5,174.5C 174.666,181.508 174.5,188.508 174,195.5C 161.516,199.322 156.516,207.655 159,220.5C 141.615,231.113 124.115,241.613 106.5,252C 99.2965,254.816 91.9632,255.149 84.5,253C 65.6728,241.751 46.6728,230.751 27.5,220C 21.2805,215.726 17.4471,209.892 16,202.5C 15.168,193.482 15.3347,184.482 16.5,175.5C 36.9322,186.886 57.2655,198.553 77.5,210.5C 78.6387,219.129 83.3054,224.796 91.5,227.5 Z"/></g>
<g><path style="opacity:0.993" fill="#cb0313" d="M 163.5,180.5 C 163.756,182.776 165.09,183.943 167.5,184C 166.167,185 166.167,186 167.5,187C 166.891,189.058 165.891,189.891 164.5,189.5C 164.709,190.086 165.043,190.586 165.5,191C 162.958,192.743 160.625,194.743 158.5,197C 159.815,198.395 159.481,199.395 157.5,200C 158.308,200.308 158.975,200.808 159.5,201.5C 157.515,201.604 156.015,202.937 155,205.5C 154.355,208.686 153.522,211.686 152.5,214.5C 151.5,215.833 150.5,215.833 149.5,214.5C 148.77,215.934 147.77,217.1 146.5,218C 147.167,218.333 147.833,218.667 148.5,219C 145.456,219.359 145.122,220.026 147.5,221C 145.926,221.336 144.592,222.169 143.5,223.5C 142.614,222.675 142.281,221.675 142.5,220.5C 141.5,220.5 140.5,220.5 139.5,220.5C 139.859,222.766 139.192,224.599 137.5,226C 137.833,226.333 138.167,226.667 138.5,227C 136.408,229.165 134.074,230.165 131.5,230C 130.874,230.75 130.374,231.584 130,232.5C 129.072,229.965 127.238,228.965 124.5,229.5C 124.5,230.5 124.5,231.5 124.5,232.5C 122.058,232.354 121.391,233.187 122.5,235C 120.407,236.927 118.407,236.76 116.5,234.5C 115.914,234.709 115.414,235.043 115,235.5C 113.915,233.343 112.749,233.176 111.5,235C 112.623,236.044 113.956,236.71 115.5,237C 114.638,239.734 113.805,239.901 113,237.5C 111.603,240.307 109.769,240.807 107.5,239C 108.654,238.086 108.487,237.253 107,236.5C 106.154,238.847 104.654,240.68 102.5,242C 98.4589,242.827 94.4589,242.66 90.5,241.5C 89.147,240.315 87.9803,238.981 87,237.5C 86.0853,238.328 85.4186,239.328 85,240.5C 83.2691,238.383 81.1024,236.883 78.5,236C 82.3863,235.421 82.3863,234.588 78.5,233.5C 76.5494,234.256 74.7161,234.589 73,234.5C 72.6258,233.584 72.1258,232.75 71.5,232C 72.3402,230.334 71.8402,230.167 70,231.5C 69.3848,229.884 68.3848,228.551 67,227.5C 64.9251,230.028 64.0918,229.861 64.5,227C 62.567,226.749 60.7337,226.249 59,225.5C 57.3335,226.34 57.1669,225.84 58.5,224C 57.6667,223.167 56.8333,222.333 56,221.5C 53.1354,222.041 51.1354,220.707 50,217.5C 48.2835,218.552 47.2835,217.886 47,215.5C 46.586,215.957 46.086,216.291 45.5,216.5C 45.1667,215.833 44.8333,215.167 44.5,214.5C 43.8333,214.833 43.1667,215.167 42.5,215.5C 39.5386,214.817 39.2053,213.984 41.5,213C 39.6077,211.092 36.941,210.092 33.5,210C 33.8333,209.667 34.1667,209.333 34.5,209C 33.1667,208.667 31.8333,208.333 30.5,208C 30.8333,207.667 31.1667,207.333 31.5,207C 29.3505,204.296 27.1838,204.129 25,206.5C 21.6433,205.258 21.81,204.424 25.5,204C 24.1236,201.457 22.957,201.291 22,203.5C 21.5,202.333 20.6667,201.5 19.5,201C 21.5,199.667 23.1667,198 24.5,196C 22.5911,195.552 21.4244,196.385 21,198.5C 17.9858,196.466 17.8191,194.132 20.5,191.5C 17.6172,187.119 18.6172,184.786 23.5,184.5C 24.7481,185.04 25.9148,185.707 27,186.5C 28.016,185.366 28.6827,185.699 29,187.5C 30,187.167 31,186.833 32,186.5C 33.1011,188.394 34.4345,189.061 36,188.5C 37.487,189.253 37.6537,190.086 36.5,191C 39.3613,191.54 42.028,192.54 44.5,194C 44.1667,194.333 43.8333,194.667 43.5,195C 46.7294,197.288 50.3961,198.954 54.5,200C 55.1258,200.75 55.6258,201.584 56,202.5C 57.5581,201.655 58.5581,202.321 59,204.5C 59.3333,204.167 59.6667,203.833 60,203.5C 61.0633,204.438 62.2299,205.438 63.5,206.5C 64.7164,205.998 65.8831,205.665 67,205.5C 67.5717,208.707 69.405,210.374 72.5,210.5C 72.4208,211.93 72.7542,213.264 73.5,214.5C 75.9913,215.541 75.9913,216.374 73.5,217C 77.5402,218.702 79.8735,221.369 80.5,225C 83.646,227.333 86.8127,228.833 90,229.5C 91.0299,229.164 91.5299,228.497 91.5,227.5C 103.446,227.895 110.779,222.228 113.5,210.5C 122.401,205.267 130.901,200.267 139,195.5C 146.944,190.112 155.111,185.112 163.5,180.5 Z"/></g>
</svg>
